<?xml version="1.0" encoding="utf-8"?>
<!-- Generator: Adobe Illustrator 22.0.1, SVG Export Plug-In . SVG Version: 6.00 Build 0)  -->
<svg version="1.1" id="Calque_1" xmlns="http://www.w3.org/2000/svg" xmlns:xlink="http://www.w3.org/1999/xlink" x="0px" y="0px"
	 viewBox="0 0 269.6 102.4" style="enable-background:new 0 0 269.6 102.4;" height="45px" xml:space="preserve">
<style type="text/css">
	.st0{fill:#FFFFFF;}
</style>
<g>
	<rect x="102.1" y="1.6" class="st0" width="9.4" height="65.5"/>
	<path class="st0" d="M194.7,34.2c0-17.6-13.5-33.5-35.3-33.5c-22.4,0-35,16.4-35,33.8c0,18.2,14,33.4,34.6,33.4
		C180.3,67.9,194.7,53,194.7,34.2z M159.5,59.2c-13.7,0-25.4-9.8-25.4-24.7c0-10.9,7.4-25,25.7-25c17.1,0,25.3,13.7,25.3,24.6
		c0,5.7-2.4,12.8-6.5,17.3C174.1,56.3,166.5,59.2,159.5,59.2z"/>
	<polygon class="st0" points="259.6,1.6 237.9,28.5 216.1,1.6 207.3,1.6 207.3,67 216.7,67 216.7,16.1 237.1,41.4 238.8,41.4 
		259,16.1 259,67 268.4,67 268.4,1.6 	"/>
	<path class="st0" d="M17.5,91.9c0,2.1-0.2,3.3-0.6,4.1c-0.6,1.1-2.2,2.9-5.7,2.9c-2.6,0-4-0.9-5-1.8C5.1,96,4.8,94.9,4.8,92V79.6
		H1.6V92c0,1.5,0,4,1.2,5.9c1.8,2.8,5.2,3.8,8.4,3.8c2.5,0,5-0.6,7-2.4c2.5-2.2,2.5-5.2,2.5-7.4V79.5h-3.2V91.9z"/>
	<polygon class="st0" points="46.7,96.4 31.7,79.5 29.1,79.5 29.1,101.3 32.1,101.3 32.1,84.5 47,101.3 49.7,101.3 49.7,79.5 
		46.7,79.5 	"/>
	<polygon class="st0" points="80.4,88.4 73,79.5 70,79.5 70,101.3 73.2,101.3 73.2,84.3 80.1,92.7 80.7,92.7 87.6,84.3 87.6,101.3 
		90.8,101.3 90.8,79.5 87.8,79.5 	"/>
	<rect x="99.6" y="79.5" class="st0" width="3.2" height="21.8"/>
	<path class="st0" d="M122.6,93.3h4.3v4.5c-2.1,0.7-3.2,1-4.9,1c-5.4,0-8.9-3.6-8.9-8.4c0-5.2,4.2-8.4,8.6-8.4
		c1.2,0,4.2,0.2,7.9,2.3v-3.2c-2.4-1-4.7-1.9-7.8-1.9c-7.6,0-12,5.6-12,11.4c0,5,3.6,11,12.2,11c3.7,0,6.5-1.1,8.2-1.8v-9.2h-7.5
		v2.7H122.6z"/>
	<path class="st0" d="M147.8,90.9c2.4-0.9,3.7-2.8,3.7-5.4c0-2.2-1.1-4.4-3.5-5.4c-1.4-0.6-2.8-0.7-3.8-0.7h-5.6v21.9h3.2v-9.5h0.8
		c1.5,0,2.6,0,4.8,2.8c0.7,0.9,3.8,5.7,4.6,6.8h3.8c-1.5-2.1-2.1-2.8-3-4.4C151,94.3,149.8,92.2,147.8,90.9z M146.1,88.7
		c-0.9,0.3-2.6,0.3-3.1,0.3h-1.2v-6.9h1c1.9,0,3,0.1,3.8,0.5c1,0.5,1.7,1.7,1.7,2.9C148.2,86.7,147.6,88.1,146.1,88.7z"/>
	<path class="st0" d="M168.8,79.3l-9.6,22h3.3l2.8-6.4h9.5l3,6.4h3.3l-10-22H168.8z M166.6,92l3.3-7.9l3.6,7.9H166.6z"/>
	<polygon class="st0" points="182.2,82.2 189.8,82.2 189.8,101.3 193,101.3 193,82.2 200.8,82.2 200.8,79.5 182.2,79.5 	"/>
	<rect x="207.8" y="79.5" class="st0" width="3.2" height="21.8"/>
	<path class="st0" d="M229.6,79.2c-7.6,0-11.9,5.5-11.9,11.3c0,6.1,4.8,11.1,11.8,11.1c7.3,0,12.2-5,12.2-11.2
		C241.6,84.5,237,79.2,229.6,79.2z M236.1,96.1c-1.5,1.6-4.1,2.6-6.5,2.6c-4.7,0-8.6-3.3-8.6-8.2c0-3.6,2.5-8.3,8.7-8.3
		c5.8,0,8.6,4.6,8.6,8.2C238.3,92.2,237.5,94.6,236.1,96.1z"/>
	<polygon class="st0" points="265.3,96.4 250.3,79.5 247.7,79.5 247.7,101.3 250.7,101.3 250.7,84.5 265.6,101.3 268.3,101.3 
		268.3,79.5 265.3,79.5 	"/>
	<path class="st0" d="M35.2,28.1c0.7,0,1.3-0.6,1.3-1.3s-0.6-1.3-1.3-1.3c-0.7,0-1.3,0.6-1.3,1.3S34.4,28.1,35.2,28.1z"/>
	<path class="st0" d="M30.1,36.1c0.1,0.1,0.2,0.1,0.3,0.1c0.2,0,0.4-0.1,0.5-0.3l2.4-5.6l0.2,5.4l-0.9,6.9c0,0.3,0.1,0.5,0.4,0.6
		c0.1,0,0.1,0,0.2,0c0.3,0,0.5-0.2,0.6-0.5l0.9-6.6h1.2l0.9,6.6c0,0.3,0.3,0.5,0.6,0.5c0.1,0,0.1,0,0.2,0c0.3-0.1,0.4-0.4,0.4-0.6
		l-0.9-6.9L37,30.3l2.4,5.6l0,0V36l0,0c0,0,0,0,0,0.1l0,0c0,0,0,0,0.1,0.1l0,0h0.1l0,0c0,0,0,0,0.1,0l0,0h0.1l0,0h0.5l-0.8,3.9
		c-0.1,0.3,0,0.6,0.2,0.8c0.1,0.1,0.3,0.2,0.4,0.3v1.6c0,0.3,0.2,0.5,0.5,0.5s0.5-0.2,0.5-0.5v-1.6l0,0l0,0h0.3h0.3l0,0l0,0l0,0v1.6
		c0,0.3,0.2,0.5,0.5,0.5s0.5-0.2,0.5-0.5v-1.6c0.2-0.1,0.3-0.2,0.4-0.3c0.2-0.2,0.3-0.5,0.2-0.8l-0.8-3.9H43l0,0h0.1l0,0
		c0,0,0,0,0.1,0l0,0h0.1l0,0c0,0,0,0,0.1-0.1l0,0c0,0,0,0,0-0.1l0,0v-0.1l0,0l2.5-5.8l0.5,2.4c0.1,0.4,0.1,0.8,0,1.2l-2,9.6h3.1h0.8
		h3.1l-2.3-9.7c-0.1-0.4-0.1-0.8,0-1.2l0.5-2.4l1.9,4.7c0.1,0.2,0.3,0.4,0.5,0.4c0.1,0,0.1,0,0.2,0c0.3-0.1,0.4-0.5,0.3-0.7
		l-2.1-5.2c-0.1-0.2-0.3-0.4-0.5-0.4l0,0H49h-0.7h-0.8h-0.6H46l0,0c-0.2,0-0.4,0.1-0.5,0.3l-2.6,6h-2.5l-2.6-6
		c-0.1-0.2-0.3-0.3-0.5-0.3h-2h-2c-0.2,0-0.4,0.1-0.5,0.3l-2.7,6.3C29.8,35.7,29.9,36,30.1,36.1z"/>
	<path class="st0" d="M47.9,28.1c0.7,0,1.3-0.6,1.3-1.3s-0.6-1.3-1.3-1.3c-0.7,0-1.3,0.6-1.3,1.3S47.1,28.1,47.9,28.1z"/>
	<path class="st0" d="M41.5,34.8c0.6,0,1-0.4,1-1s-0.4-1-1-1s-1,0.4-1,1C40.5,34.3,41,34.8,41.5,34.8z"/>
	<path class="st0" d="M81.6,32.4c0-10.4-4.8-22-12.5-30.7h-6.9c1.8,1.7,4.3,4.6,4.3,4.6c6.7,7.5,10.6,17.5,10.6,26.4
		c0,0.1,0,0.2,0,0.3H66C64.3,15.5,50.4,1.7,33.5,1.7c-18,0-32.7,15.5-32.7,34.7c0,10.4,4.8,22,12.5,30.7h6.9
		c-1.8-1.7-4.3-4.6-4.3-4.6C9.2,55,5.3,45,5.3,36.1c0-0.1,0-0.2,0-0.3h11.1C18.1,53.3,32,67.1,48.9,67.1
		C67,67.1,81.6,51.5,81.6,32.4z M49.7,62.5v-8.2c4.7,0.2,8.8,2.1,11.9,5C58,61.3,53.9,62.4,49.7,62.5z M49.7,52.6v-5.1H65
		c-2.2,2.9-5.1,5.3-8.2,6.6C54.6,53.3,52.2,52.7,49.7,52.6z M63.2,58.4c-1.3-1.2-2.7-2.3-4.3-3.2c3.2-1.7,6.1-4.4,8.3-7.7h6.2
		C70.9,52,67.4,55.8,63.2,58.4z M77,35c-0.3,3.7-1.2,7.2-2.6,10.4h-6c1.6-2.9,2.5-6.2,2.5-9.6c0-0.2,0-0.6,0-0.9L77,35L77,35z
		 M61.4,33h-5.7c0-0.1,0-0.1,0-0.1c0-3.4-0.9-6.6-2.5-9.6h5.6C60.2,26.3,61.1,29.6,61.4,33z M57.8,21.3H52c-2.2-3.3-5.1-6-8.3-7.7
		c1.5-0.9,2.9-1.9,4.1-3.1C52,13.1,55.5,16.8,57.8,21.3z M34.8,6.3c4.1,0.2,8,1.4,11.5,3.3c-3,2.8-7,4.6-11.5,4.9V6.3z M34.8,16.2
		c2.4-0.1,4.7-0.7,6.8-1.5c3.1,1.4,6,3.7,8.2,6.6h-15V16.2z M32.8,6.3v8.2c-4.6-0.2-8.8-2.1-11.9-5C24.4,7.5,28.5,6.4,32.8,6.3z
		 M32.8,16.2v5.1H17.5c2.2-2.9,5.1-5.3,8.2-6.6C27.9,15.5,30.3,16.1,32.8,16.2z M19.3,10.4c1.3,1.2,2.7,2.3,4.3,3.2
		c-3.2,1.7-6.1,4.4-8.3,7.7H9.1C11.5,16.8,15,13,19.3,10.4z M5.5,33.7c0.3-3.7,1.2-7.2,2.6-10.4h6c-1.6,2.9-2.5,6.2-2.5,9.6
		c0,0.2,0,0.6,0,0.9L5.5,33.7L5.5,33.7z M13.4,33.7c0-0.3,0-0.7,0-0.9c0-3.4,1-6.7,2.7-9.6h35.1c1.7,2.9,2.7,6.2,2.7,9.6v0.1l0,0v2
		h15.2c0,0.3,0,0.6,0,0.9c0,3.4-1,6.7-2.7,9.6H31.2c-1.7-2.9-2.7-6.2-2.7-9.6v-0.1l0,0v-2H13.4z M21,35.8h5.7c0,0.1,0,0.1,0,0.1
		c0,3.4,0.9,6.6,2.5,9.6h-5.6C22.2,42.5,21.3,39.2,21,35.8z M24.6,47.5h5.8c2.2,3.3,5.1,6,8.3,7.7c-1.5,0.9-2.9,1.9-4.1,3.1
		C30.4,55.7,27,51.9,24.6,47.5z M47.6,62.5c-4.1-0.2-8-1.4-11.5-3.3c3-2.8,7-4.6,11.5-4.9V62.5z M47.6,52.6
		c-2.4,0.1-4.7,0.7-6.8,1.5c-3.1-1.4-6-3.7-8.2-6.6h15V52.6z"/>
</g>
</svg>
