<?xml version="1.0" encoding="utf-8"?>
<!-- Generator: Adobe Illustrator 22.1.0, SVG Export Plug-In . SVG Version: 6.00 Build 0)  -->
<svg version="1.1" id="Laag_1" xmlns="http://www.w3.org/2000/svg" xmlns:xlink="http://www.w3.org/1999/xlink" x="0px" y="0px"
	 viewBox="0 0 82 67" style="enable-background:new 0 0 82 67;" xml:space="preserve">
<path d="M34.9,27c0.7,0,1.3-0.6,1.3-1.3c0-0.7-0.6-1.3-1.3-1.3s-1.3,0.6-1.3,1.3C33.6,26.4,34.1,27,34.9,27z"/>
<path d="M29.7,35.2c0.1,0.1,0.2,0.1,0.3,0.1c0.2,0,0.4-0.1,0.5-0.3l2.4-5.7l0.2,5.5l-0.9,7.1c0,0.3,0.1,0.5,0.4,0.6
	c0.1,0,0.1,0,0.2,0c0.3,0,0.5-0.2,0.6-0.5l0.9-6.8h1.2l0.9,6.8c0,0.3,0.3,0.5,0.6,0.5c0.1,0,0.1,0,0.2,0c0.3-0.1,0.4-0.4,0.4-0.6
	l-0.9-7.1l-0.1-5.5l2.4,5.7l0,0v0.1l0,0c0,0,0,0,0,0.1l0,0c0,0,0,0,0.1,0.1l0,0h0.1l0,0c0,0,0,0,0.1,0l0,0h0.1l0,0h0.5l-0.8,4
	c-0.1,0.3,0,0.6,0.2,0.8c0.1,0.1,0.3,0.2,0.4,0.3v1.6c0,0.3,0.2,0.5,0.5,0.5s0.5-0.2,0.5-0.5v-1.6l0,0l0,0h0.3h0.3l0,0l0,0l0,0v1.6
	c0,0.3,0.2,0.5,0.5,0.5s0.5-0.2,0.5-0.5v-1.6c0.2-0.1,0.3-0.2,0.4-0.3c0.2-0.2,0.3-0.5,0.2-0.8l-0.8-4h0.5l0,0h0.1l0,0
	c0,0,0,0,0.1,0l0,0h0.1l0,0c0,0,0,0,0.1-0.1l0,0c0,0,0,0,0-0.1l0,0V35l0,0l2.5-5.9l0.5,2.5c0.1,0.4,0.1,0.8,0,1.2l-2,9.8h3.1h0.8
	h3.1L49,32.7c-0.1-0.4-0.1-0.8,0-1.2l0.5-2.5l1.9,4.8c0.1,0.2,0.3,0.4,0.5,0.4c0.1,0,0.1,0,0.2,0c0.3-0.1,0.4-0.5,0.3-0.7l-2.1-5.3
	c-0.1-0.2-0.3-0.4-0.5-0.4l0,0h-0.9h-0.7h-0.8h-0.6h-0.9l0,0c-0.2,0-0.4,0.1-0.5,0.3l-2.6,6.1h-2.5l-2.6-6.1
	c-0.1-0.2-0.3-0.3-0.5-0.3h-2h-2c-0.2,0-0.4,0.1-0.5,0.3l-2.7,6.5C29.4,34.8,29.5,35.1,29.7,35.2z"/>
<path d="M47.8,27c0.7,0,1.3-0.6,1.3-1.3c0-0.7-0.6-1.3-1.3-1.3s-1.3,0.6-1.3,1.3C46.5,26.4,47,27,47.8,27z"/>
<path d="M41.3,33.9c0.6,0,1-0.4,1-1s-0.4-1-1-1c-0.6,0-1,0.4-1,1C40.3,33.4,40.8,33.9,41.3,33.9z"/>
<path d="M82,31.5C82,20.8,77.1,8.9,69.3,0h-7c1.8,1.7,4.4,4.7,4.4,4.7c6.8,7.7,10.8,17.9,10.8,27c0,0.1,0,0.2,0,0.3H66.2
	C64.4,14.1,50.3,0,33.2,0C14.9,0,0,15.9,0,35.5C0,46.2,4.9,58.1,12.7,67h7c-1.8-1.7-4.4-4.7-4.4-4.7c-6.8-7.7-10.8-17.9-10.8-27
	c0-0.1,0-0.2,0-0.3h11.3C17.6,52.9,31.7,67,48.8,67C67.2,67,82,51,82,31.5z M49.6,62.3v-8.4c4.8,0.2,8.9,2.2,12.1,5.1
	C58,61.1,53.9,62.2,49.6,62.3z M49.6,52.1v-5.2h15.5c-2.2,3-5.2,5.4-8.3,6.8C54.6,52.9,52.2,52.2,49.6,52.1z M63.3,58.1
	c-1.3-1.2-2.7-2.4-4.4-3.3c3.2-1.7,6.2-4.5,8.4-7.9h6.3C71.1,51.5,67.6,55.4,63.3,58.1z M77.3,34.1c-0.3,3.8-1.2,7.4-2.6,10.7h-6.1
	c1.6-3,2.5-6.4,2.5-9.8c0-0.2,0-0.6,0-0.9L77.3,34.1L77.3,34.1z M61.5,32.1h-5.8c0-0.1,0-0.1,0-0.1c0-3.5-0.9-6.8-2.5-9.8h5.7
	C60.3,25.2,61.2,28.6,61.5,32.1z M57.8,20.1H52c-2.2-3.4-5.2-6.1-8.4-7.9c1.5-0.9,2.9-1.9,4.2-3.2C52,11.7,55.5,15.5,57.8,20.1z
	 M34.5,4.7c4.2,0.2,8.1,1.4,11.7,3.4c-3,2.9-7.1,4.7-11.7,5V4.7z M34.5,14.9c2.4-0.1,4.8-0.7,6.9-1.5c3.1,1.4,6.1,3.8,8.3,6.8H34.5
	V14.9z M32.5,4.7v8.4C27.8,12.9,23.5,11,20.4,8C24,5.9,28.1,4.8,32.5,4.7z M32.5,14.9v5.2H16.9c2.2-3,5.2-5.4,8.3-6.8
	C27.5,14.1,29.9,14.8,32.5,14.9z M18.8,8.9c1.3,1.2,2.7,2.4,4.4,3.3c-3.2,1.7-6.2,4.5-8.4,7.9H8.4C10.9,15.5,14.4,11.6,18.8,8.9z
	 M4.8,32.8C5.1,29,6,25.4,7.4,22.1h6.1c-1.6,3-2.5,6.4-2.5,9.8c0,0.2,0,0.6,0,0.9L4.8,32.8L4.8,32.8z M12.8,32.8c0-0.3,0-0.7,0-0.9
	c0-3.5,1-6.9,2.7-9.8h35.6c1.7,3,2.7,6.4,2.7,9.8V32l0,0v2h15.4c0,0.3,0,0.6,0,0.9c0,3.5-1,6.9-2.7,9.8H30.9c-1.7-3-2.7-6.4-2.7-9.8
	v-0.1l0,0v-2C28.1,32.8,12.8,32.8,12.8,32.8z M20.5,34.9h5.8c0,0.1,0,0.1,0,0.1c0,3.5,0.9,6.8,2.5,9.8h-5.7
	C21.7,41.8,20.8,38.4,20.5,34.9z M24.2,46.9H30c2.2,3.4,5.2,6.1,8.4,7.9c-1.5,0.9-2.9,1.9-4.2,3.2C30,55.3,26.6,51.4,24.2,46.9z
	 M47.5,62.3c-4.2-0.2-8.1-1.4-11.7-3.4c3-2.9,7.1-4.7,11.7-5V62.3z M47.5,52.1c-2.4,0.1-4.8,0.7-6.9,1.5c-3.1-1.4-6.1-3.8-8.3-6.8
	h15.2V52.1z"/>
</svg>
