<?xml version="1.0" encoding="utf-8"?>
<!-- Generator: Adobe Illustrator 22.0.1, SVG Export Plug-In . SVG Version: 6.00 Build 0)  -->
<svg version="1.1" id="Calque_1" xmlns="http://www.w3.org/2000/svg" xmlns:xlink="http://www.w3.org/1999/xlink" x="0px" y="0px"
	 viewBox="0 0 503.7 71.4" style="enable-background:new 0 0 503.7 71.4;" xml:space="preserve">
<style type="text/css">
	.st0{fill:#FFFFFF;}
	.st1{fill:#0033A0;}
</style>
<g>
	<g>
		<g>
			<path class="st0" d="M73.8,46.4h-2.9V26h2.9V46.4z"/>
			<path class="st0" d="M100.1,36.2c0,5.9-4.5,10.5-11.2,10.5c-6.4,0-10.8-4.7-10.8-10.4c0-5.4,4-10.6,10.9-10.6
				C95.9,25.7,100.1,30.7,100.1,36.2z M81.2,36.3c0,4.6,3.7,7.7,7.9,7.7c2.2,0,4.6-0.9,6-2.4c1.3-1.4,2-3.6,2-5.4
				c0-3.4-2.6-7.7-7.9-7.7C83.5,28.5,81.2,32.8,81.2,36.3z"/>
			<path class="st0" d="M123.6,46.4h-2.9V30.5l-6.3,7.9h-0.5l-6.4-7.9v15.9h-2.9V26h2.8l6.8,8.4l6.8-8.4h2.7V46.4z"/>
			<path class="st0" d="M152.6,27.3H145v19.1h-1.6V27.3h-7.7V26h16.9V27.3z"/>
			<path class="st0" d="M159.7,26c2.4,0,3.6,0.1,4.9,0.6c1.6,0.7,3.1,2.4,3.1,4.7c0,2.5-1.4,4.1-3.9,5c1.2,0.8,1.7,1.6,6.4,8.8
				l1,1.4h-1.9l-3.9-6.2c-0.6-1-1.7-2.4-2.5-3c-0.9-0.6-1.9-0.6-3.4-0.6h-2.2v9.8h-1.6V26H159.7z M157.2,27.3v8h2.2
				c2.3,0,3.5-0.1,4.6-0.7c1.1-0.5,1.9-2,1.9-3.4c0-1.4-0.8-2.7-1.9-3.3c-0.7-0.3-1.6-0.7-4.2-0.7H157.2z"/>
			<path class="st0" d="M192.6,46.4h-1.6l-3.2-7.1h-10l-3.2,7.1h-1.6l9.4-20.6h0.9L192.6,46.4z M182.7,28.4l-4.4,9.6h8.8L182.7,28.4
				z"/>
			<path class="st0" d="M214,46.4h-1.3l-15.5-18v18h-1.6V26h1.5l15.4,17.9V26h1.6V46.4z"/>
			<path class="st0" d="M228.9,28.7c-1.7-1-2.9-1.6-4.6-1.6c-2.9,0-4.3,2.2-4.3,3.9c0,2.6,2.3,3.4,4.6,4.2c2.4,0.9,5.2,2.2,5.2,5.8
				c0,3.6-3.1,5.6-5.9,5.6c-1.9,0-3.7-0.8-5.2-1.8V43c1.8,1.3,3.3,2.2,5.2,2.2c2.9,0,4.3-2.2,4.3-4.1c0-2.8-2.6-3.8-4.2-4.4
				c-2.7-0.9-3.2-1.4-3.7-1.8c-1.1-0.9-1.9-2.3-1.9-3.9c0-2.7,2.3-5.4,5.8-5.4c1.7,0,3.3,0.5,4.8,1.3V28.7z"/>
			<path class="st0" d="M237.7,26c2.9,0,4.1,0.1,5.6,0.9c1.6,0.9,2.5,2.4,2.5,4.5c0,2.1-1.1,3.9-2.6,4.7c-1.7,0.8-3,0.8-5.3,0.8
				h-2.8v9.6h-1.6V26H237.7z M235.1,27.3v8.3h2.9c2,0,3.4-0.1,4.6-0.9c0.9-0.6,1.5-2,1.5-3.2c0-1.3-0.5-2.5-1.5-3.2
				c-0.9-0.6-1.9-0.9-4.8-0.9H235.1z"/>
			<path class="st0" d="M264.7,46.4h-1.6l-3.2-7.1h-10l-3.2,7.1H245l9.4-20.6h0.9L264.7,46.4z M254.8,28.4l-4.4,9.6h8.8L254.8,28.4z
				"/>
			<path class="st0" d="M271.8,26c2.4,0,3.6,0.1,4.9,0.6c1.6,0.7,3.1,2.4,3.1,4.7c0,2.5-1.4,4.1-3.9,5c1.2,0.8,1.7,1.6,6.4,8.8
				l1,1.4h-1.9l-3.9-6.2c-0.6-1-1.7-2.4-2.5-3c-0.9-0.6-1.9-0.6-3.4-0.6h-2.2v9.8h-1.6V26H271.8z M269.3,27.3v8h2.2
				c2.3,0,3.5-0.1,4.6-0.7c1.1-0.5,1.9-2,1.9-3.4c0-1.4-0.8-2.7-1.9-3.3c-0.7-0.3-1.6-0.7-4.2-0.7H269.3z"/>
			<path class="st0" d="M297.1,27.3h-9.6v8.2h9.3v1.3h-9.3v8.4h9.8v1.3H286V26h11.2V27.3z"/>
			<path class="st0" d="M319.4,46.4h-1.3l-15.5-18v18H301V26h1.5l15.4,17.9V26h1.6V46.4z"/>
			<path class="st0" d="M341.5,29.1c-1.6-0.8-3.8-1.9-7-1.9c-5.5,0-9.2,3.8-9.2,9c0,5.3,3.8,9,9.1,9c3.3,0,6.1-1.4,7.3-2v1.6
				c-3.3,1.8-6.2,1.9-7.3,1.9c-5.6,0-10.9-3.9-10.9-10.5c0-7,5.9-10.5,10.7-10.5c2.5,0,5,0.7,7.3,1.7V29.1z"/>
			<path class="st0" d="M353,35.4v11h-1.6v-11l-7.9-9.5h1.9l6.8,8.1l6.8-8.1h1.9L353,35.4z"/>
			<path class="st0" d="M376.6,26c2.9,0,4.1,0.1,5.6,0.9c1.6,0.9,2.5,2.4,2.5,4.5c0,2.1-1.1,3.9-2.6,4.7c-1.7,0.8-3,0.8-5.3,0.8H374
				v9.6h-1.6V26H376.6z M374,27.3v8.3h2.9c2,0,3.4-0.1,4.6-0.9c0.9-0.6,1.5-2,1.5-3.2c0-1.3-0.5-2.5-1.5-3.2
				c-0.9-0.6-1.9-0.9-4.8-0.9H374z"/>
			<path class="st0" d="M397.7,46.7c-6.1,0-10.8-4.6-10.8-10.5c0-5.5,4.3-10.5,10.9-10.5c6.5,0,10.8,4.9,10.8,10.4
				C408.6,42.3,403.7,46.7,397.7,46.7z M397.8,27.2c-5.2,0-9.1,4-9.1,9c0,4.8,3.8,9,9,9c4.7,0,9.1-3.5,9.1-9.1
				C406.8,31.4,403.1,27.2,397.8,27.2z"/>
			<path class="st0" d="M416.8,26c2.4,0,3.6,0.1,4.9,0.6c1.6,0.7,3.1,2.4,3.1,4.7c0,2.5-1.4,4.1-3.9,5c1.2,0.8,1.7,1.6,6.4,8.8
				l1,1.4h-1.9l-3.9-6.2c-0.6-1-1.7-2.4-2.5-3c-0.9-0.6-1.9-0.6-3.4-0.6h-2.2v9.8h-1.6V26H416.8z M414.4,27.3v8h2.2
				c2.3,0,3.5-0.1,4.6-0.7c1.1-0.5,1.9-2,1.9-3.4c0-1.4-0.8-2.7-1.9-3.3c-0.7-0.3-1.6-0.7-4.2-0.7H414.4z"/>
			<path class="st0" d="M444.3,27.3h-7.6v19.1h-1.6V27.3h-7.7V26h16.9V27.3z"/>
			<path class="st0" d="M462,46.4h-1.7l-3.2-7.1h-10l-3.2,7.1h-1.6l9.4-20.6h0.9L462,46.4z M452.1,28.4l-4.4,9.6h8.8L452.1,28.4z"/>
			<path class="st0" d="M466.5,45.1h10.1v1.3H465V26h1.6V45.1z"/>
		</g>
	</g>
	<g>
		<path class="st0" d="M35.2,51.4c-0.8-0.8-2-2.1-2-2.1c-3.1-3.5-4.9-8.2-4.9-12.3c0-0.1,0-0.1,0-0.2h5.1
			c0.8,8.2,7.2,14.6,15.1,14.6c8.4,0,15.1-7.3,15.1-16.2c0-4.9-2.2-10.3-5.8-14.3h-3.2c0.8,0.8,2,2.1,2,2.1
			c3.1,3.5,4.9,8.2,4.9,12.3c0,0.1,0,0.1,0,0.2h-5.1c-0.8-8.2-7.2-14.6-15.1-14.6c-8.4,0-15.1,7.3-15.1,16.2
			c0,4.9,2.2,10.3,5.8,14.3H35.2z M35.6,36.8h2.6c0,0,0,0,0,0.1c0,1.6,0.4,3.1,1.2,4.5h-2.6C36.1,40,35.7,38.4,35.6,36.8z
			 M37.2,42.3h2.7c1,1.5,2.4,2.8,3.8,3.6c-0.7,0.4-1.3,0.9-1.9,1.4C39.9,46.1,38.3,44.4,37.2,42.3z M47.9,49.3
			c-1.9-0.1-3.7-0.6-5.3-1.5c1.4-1.3,3.3-2.1,5.3-2.3V49.3z M47.9,44.7c-1.1,0.1-2.2,0.3-3.1,0.7c-1.4-0.6-2.8-1.7-3.8-3.1h7V44.7z
			 M48.9,49.3v-3.8c2.2,0.1,4.1,1,5.5,2.3C52.7,48.7,50.8,49.2,48.9,49.3z M48.9,44.7v-2.4h7.1c-1,1.4-2.4,2.5-3.8,3.1
			C51.1,45,50,44.7,48.9,44.7z M55.1,47.4c-0.6-0.6-1.2-1.1-2-1.5c1.5-0.8,2.8-2.1,3.8-3.6h2.9C58.7,44.4,57.1,46.2,55.1,47.4z
			 M61.5,36.5c-0.1,1.7-0.5,3.4-1.2,4.9h-2.8c0.7-1.4,1.2-2.9,1.2-4.5c0-0.1,0-0.3,0-0.4H61.5z M54.3,35.5h-2.6c0,0,0,0,0-0.1
			c0-1.6-0.4-3.1-1.2-4.5h2.6C53.7,32.4,54.1,33.9,54.3,35.5z M52.6,30H50c-1-1.5-2.4-2.8-3.8-3.6c0.7-0.4,1.3-0.9,1.9-1.4
			C49.9,26.2,51.5,28,52.6,30z M42,23c1.9,0.1,3.7,0.6,5.3,1.5c-1.4,1.3-3.3,2.1-5.3,2.3V23z M42,27.6c1.1-0.1,2.2-0.3,3.1-0.7
			c1.4,0.6,2.8,1.7,3.8,3.1h-7V27.6z M49.6,31c0.8,1.3,1.3,2.9,1.3,4.5c0,0,0,0,0,0.1h0l0,0.9h7c0,0.1,0,0.3,0,0.4
			c0,1.6-0.5,3.1-1.3,4.5H40.3C39.5,40,39,38.5,39,36.9c0,0,0,0,0-0.1h0l0-1h-7c0-0.1,0-0.3,0-0.4c0-1.6,0.5-3.1,1.3-4.5H49.6z
			 M33.9,30c1-1.4,2.4-2.5,3.8-3.1c1,0.4,2.1,0.7,3.3,0.7V30H33.9z M41,23v3.8c-2.2-0.1-4.1-1-5.5-2.3C37.2,23.6,39,23.1,41,23z
			 M34.8,24.9c0.6,0.6,1.2,1.1,2,1.5c-1.5,0.8-2.8,2.1-3.8,3.6h-2.9C31.2,27.9,32.8,26.2,34.8,24.9z M29.6,31h2.8
			c-0.7,1.4-1.2,2.9-1.2,4.5c0,0.1,0,0.3,0,0.4h-2.8C28.5,34.1,28.9,32.5,29.6,31z"/>
		<path class="st0" d="M42,33.2c0.4,0,0.8-0.4,0.8-0.8c0-0.4-0.4-0.8-0.8-0.8c-0.4,0-0.8,0.4-0.8,0.8C41.2,32.8,41.5,33.2,42,33.2z"
			/>
		<path class="st0" d="M39.8,36.9c0.1,0,0.2,0,0.2-0.1l0.9-2.5l0.4,2.3l-1,4c0,0.1,0.2,0.2,0.3,0.2c0.1,0,0.2-0.1,0.3-0.1l1.2-3.4
			l1.2,3.4c0.1,0.1,0.1,0.1,0.3,0.1c0.2,0,0.3-0.1,0.3-0.2l-1-4l0.4-2.3l1.3,3.1c0,0,0,0,0,0l0.2,0.7l-0.3,1.3h0.2l-0.1,1.1
			c0,0.1,0.1,0.1,0.2,0.1c0.1,0,0.1,0,0.2-0.1l0.1-1.2h0.5l0.2,1.2c0,0,0.1,0.1,0.2,0.1c0.1,0,0.2-0.1,0.2-0.1l-0.1-1.1h0.2
			l-0.3-1.3l0.2-0.8l1.4-2.9c0,0,0.3,1.3,0.2,1.6c-0.7,1.8-0.8,4.7-0.8,4.7l1.5-0.1l1.5,0.1c0,0-0.2-3-0.8-4.7
			c-0.1-0.3,0.2-1.6,0.2-1.6l1,2.1c0,0.1,0.1,0.1,0.2,0.1c0.1,0,0.1-0.1,0.1-0.2l-1.2-3h-1h-1L46,36.5h-1.5l-1.1-3.3h-2.7l-1.1,3.4
			C39.5,36.8,39.7,36.9,39.8,36.9z"/>
		<path class="st0" d="M48.2,33.3c0.4,0,0.7-0.3,0.7-0.7s-0.3-0.7-0.7-0.7c-0.4,0-0.7,0.3-0.7,0.7S47.8,33.3,48.2,33.3z"/>
		<path class="st0" d="M45.2,36.5c0.3,0,0.5-0.2,0.5-0.5c0-0.3-0.2-0.5-0.5-0.5c-0.3,0-0.5,0.2-0.5,0.5
			C44.7,36.2,44.9,36.5,45.2,36.5z"/>
	</g>
</g>
</svg>
